<svg xmlns="http://www.w3.org/2000/svg" xmlns:xlink="http://www.w3.org/1999/xlink" width="254" zoomAndPan="magnify" viewBox="0 0 190.5 44.249999" height="59" preserveAspectRatio="xMidYMid meet" version="1.0"><defs><g/><clipPath id="b922bfd467"><path d="M 1.339844 0 L 188.667969 0 L 188.667969 43.511719 L 1.339844 43.511719 Z M 1.339844 0 " clip-rule="nonzero"/></clipPath><clipPath id="3acbb587b2"><path d="M 5.691406 11 L 20 11 L 20 23 L 5.691406 23 Z M 5.691406 11 " clip-rule="nonzero"/></clipPath><clipPath id="f71799fb7a"><path d="M 18 2 L 59.53125 2 L 59.53125 42 L 18 42 Z M 18 2 " clip-rule="nonzero"/></clipPath></defs><g clip-path="url(#b922bfd467)"><path fill="#ffffff" d="M 1.339844 0 L 188.667969 0 L 188.667969 43.511719 L 1.339844 43.511719 Z M 1.339844 0 " fill-opacity="1" fill-rule="nonzero"/><path fill="#ffffff" d="M 1.339844 0 L 188.667969 0 L 188.667969 43.511719 L 1.339844 43.511719 Z M 1.339844 0 " fill-opacity="1" fill-rule="nonzero"/></g><path fill="#3ca838" d="M 17.582031 28.941406 C 17.582031 28.941406 21.546875 28.132812 25.667969 29.546875 C 24.734375 31.070312 21.039062 36.207031 14.96875 33.789062 C 7.882812 30.960938 6.28125 33.847656 6.28125 33.847656 C 6.28125 33.847656 5.691406 29.175781 11.65625 25.191406 C 17.316406 21.40625 22.601562 25.65625 24.816406 27.914062 C 22.355469 27.761719 19.390625 27.871094 17.582031 28.941406 " fill-opacity="1" fill-rule="nonzero"/><g clip-path="url(#3acbb587b2)"><path fill="#3ca838" d="M 14.625 17.429688 C 14.625 17.429688 17.164062 19.273438 18.507812 22.371094 C 17.148438 22.632812 12.273438 23.207031 10.484375 18.46875 C 8.398438 12.933594 5.910156 13.527344 5.910156 13.527344 C 5.910156 13.527344 8.273438 10.75 13.671875 12.078125 C 18.796875 13.335938 19.128906 18.582031 18.996094 21.027344 C 17.796875 19.542969 16.183594 17.902344 14.625 17.429688 " fill-opacity="1" fill-rule="nonzero"/></g><g clip-path="url(#f71799fb7a)"><path fill="#351f17" d="M 30.445312 16.328125 C 30.691406 20.070312 27.230469 21.179688 26.234375 21.417969 C 26.191406 18.917969 27.335938 16.894531 27.335938 16.894531 C 26.429688 17.695312 25.847656 19.292969 25.492188 20.664062 C 24.652344 19.054688 23.269531 15.414062 26.339844 12.996094 C 29.574219 10.445312 32.019531 11.59375 32.019531 11.59375 C 32.019531 11.59375 30.160156 11.957031 30.445312 16.328125 Z M 50.722656 22.726562 C 50.722656 19.425781 49.542969 16.179688 46.65625 13.539062 C 46.65625 13.539062 49.132812 14.671875 50.785156 17.644531 C 48.582031 6.441406 42.179688 3.582031 37.46875 3.035156 C 24.160156 1.492188 18.554688 14.957031 18.554688 14.957031 C 19.582031 14.230469 20.746094 13.589844 21.960938 13.027344 C 20.5 16.136719 20.386719 18.847656 21 20.835938 C 21.09375 18.902344 21.90625 17.128906 21.90625 17.128906 C 20.863281 21.804688 22.472656 23.582031 24.117188 24.242188 C 24.296875 24.285156 24.476562 24.3125 24.660156 24.328125 C 23.527344 23.550781 23.203125 22.324219 23.21875 21.132812 C 23.199219 19.308594 24.019531 17.523438 24.019531 17.523438 C 23.996094 17.621094 23.976562 17.714844 23.957031 17.8125 C 23.996094 17.71875 24.019531 17.667969 24.019531 17.667969 C 23.820312 18.546875 23.734375 19.304688 23.730469 19.964844 C 23.75 21.613281 24.308594 22.605469 25.027344 23.195312 C 25.78125 23.816406 26.902344 23.734375 27.554688 23.011719 L 27.566406 23 C 30.082031 20.199219 32.882812 15.117188 34.230469 12.550781 C 33.84375 15.105469 33.90625 17.632812 34.011719 19.210938 C 35.265625 11.132812 38.605469 8.859375 38.605469 8.859375 C 38.605469 8.859375 40.578125 11.3125 41.191406 14.617188 C 41.503906 16.304688 43.46875 17.496094 44.285156 18.949219 C 44.703125 19.6875 42.683594 20.296875 42.683594 20.296875 C 42.683594 20.296875 42.589844 20.769531 43.023438 21.300781 C 43.394531 21.753906 42.082031 22.132812 42.082031 22.132812 C 42.082031 22.132812 43.332031 22.546875 42.660156 23.125 C 42.414062 23.335938 42.109375 23.542969 42.035156 23.941406 C 41.902344 24.644531 43.449219 26.5625 40.609375 26.375 C 28.824219 25.59375 25.296875 36.308594 28.039062 36.910156 C 31.707031 37.71875 40.21875 19.546875 42.496094 32.824219 C 43.953125 41.3125 48.875 42.011719 53.042969 40.898438 C 48.601562 41.152344 46.625 38.523438 46.625 38.523438 C 49.761719 40.394531 53.34375 40.546875 55.832031 39.875 C 58.09375 39.261719 59.472656 37.773438 59.472656 37.773438 C 59.472656 37.773438 50.722656 40.171875 50.722656 22.726562 " fill-opacity="1" fill-rule="nonzero"/></g><path fill="#351f17" d="M 37.417969 15.933594 C 37.988281 17.261719 41.113281 17.125 41.113281 17.125 C 40.074219 16.476562 40.480469 15.863281 40.480469 15.863281 C 38.746094 17.375 37.417969 15.933594 37.417969 15.933594 " fill-opacity="1" fill-rule="nonzero"/><g fill="#351f17" fill-opacity="1"><g transform="translate(57.436485, 30.14016)"><g><path d="M 4.765625 -5.515625 L 4.78125 -5.515625 L 8.46875 0 L 12.765625 0 L 8.34375 -5.671875 C 10.296875 -6.140625 11.859375 -7.875 11.859375 -10.484375 C 11.859375 -13.40625 9.640625 -15.421875 7.140625 -15.421875 L 1.359375 -15.421875 L 1.359375 0 L 4.765625 0 Z M 6.578125 -12.75 C 7.578125 -12.75 8.625 -11.890625 8.625 -10.484375 C 8.625 -9 7.578125 -8.1875 6.578125 -8.1875 L 4.765625 -8.1875 L 4.765625 -12.75 Z M 6.578125 -12.75 "/></g></g></g><g fill="#351f17" fill-opacity="1"><g transform="translate(71.048511, 30.14016)"><g><path d="M 6.515625 -2.359375 C 4.671875 -2.359375 4.171875 -3.703125 4.171875 -4.96875 C 4.171875 -6.21875 4.71875 -7.5625 6.515625 -7.5625 C 8.28125 -7.5625 8.828125 -6.21875 8.828125 -4.96875 C 8.828125 -3.703125 8.328125 -2.359375 6.515625 -2.359375 Z M 6.515625 -10.203125 C 3.375 -10.203125 0.796875 -8.125 0.796875 -4.984375 C 0.796875 -1.796875 3.3125 0.203125 6.515625 0.203125 C 9.6875 0.203125 12.203125 -1.796875 12.203125 -4.984375 C 12.203125 -8.125 9.625 -10.203125 6.515625 -10.203125 Z M 6.515625 -10.203125 "/></g></g></g><g fill="#351f17" fill-opacity="1"><g transform="translate(85.159643, 30.14016)"><g><path d="M 1.140625 -4.3125 C 1.140625 -1.609375 2.21875 0.234375 4.90625 0.234375 C 6.21875 0.234375 7.28125 -0.359375 7.96875 -1.21875 L 7.96875 0 L 11.359375 0 L 11.359375 -10 L 7.96875 -10 L 7.96875 -4.984375 C 7.96875 -3.65625 7.125 -2.5 6.0625 -2.5 C 4.984375 -2.5 4.53125 -3.15625 4.53125 -4.3125 L 4.53125 -10 L 1.140625 -10 Z M 1.140625 -4.3125 "/></g></g></g><g fill="#351f17" fill-opacity="1"><g transform="translate(98.998536, 30.14016)"><g><path d="M 5.65625 -7.375 L 7.46875 -7.375 L 7.46875 -10 L 5.65625 -10 L 5.65625 -13.8125 L 2.265625 -13.8125 L 2.265625 -10 L 0.453125 -10 L 0.453125 -7.375 L 2.265625 -7.375 L 2.265625 0 L 5.65625 0 Z M 5.65625 -7.375 "/></g></g></g><g fill="#351f17" fill-opacity="1"><g transform="translate(108.027846, 30.14016)"><g><path d="M 1.1875 -13.4375 C 1.1875 -12.34375 2.0625 -11.4375 3.171875 -11.4375 C 4.265625 -11.4375 5.171875 -12.34375 5.171875 -13.4375 C 5.171875 -14.546875 4.265625 -15.421875 3.171875 -15.421875 C 2.0625 -15.421875 1.1875 -14.546875 1.1875 -13.4375 Z M 4.875 0 L 4.875 -10 L 1.46875 -10 L 1.46875 0 Z M 4.875 0 "/></g></g></g><g fill="#351f17" fill-opacity="1"><g transform="translate(115.491775, 30.14016)"><g><path d="M 11.59375 -5.671875 C 11.59375 -8.390625 10.5 -10.234375 7.828125 -10.234375 C 6.515625 -10.234375 5.4375 -9.640625 4.765625 -8.78125 L 4.765625 -10 L 1.359375 -10 L 1.359375 0 L 4.765625 0 L 4.765625 -4.984375 C 4.765625 -6.359375 5.609375 -7.484375 6.671875 -7.484375 C 7.734375 -7.484375 8.1875 -6.859375 8.1875 -5.671875 L 8.1875 0 L 11.59375 0 Z M 11.59375 -5.671875 "/></g></g></g><g fill="#351f17" fill-opacity="1"><g transform="translate(129.21724, 30.14016)"><g><path d="M 4.453125 -6.1875 C 4.453125 -6.1875 4.5625 -8.046875 6.6875 -8.046875 C 8.75 -8.046875 8.921875 -6.1875 8.921875 -6.1875 Z M 12.1875 -5.21875 C 12.1875 -8.421875 9.671875 -10.234375 6.625 -10.234375 C 3.265625 -10.234375 0.796875 -8.125 0.796875 -4.984375 C 0.796875 -1.8125 3.171875 0.234375 6.625 0.234375 C 9.28125 0.234375 11.40625 -1.09375 12 -3.71875 L 8.53125 -3.71875 C 8.5 -3 7.765625 -2.203125 6.5625 -2.203125 C 5.21875 -2.203125 4.40625 -3.421875 4.40625 -4.578125 L 12.15625 -4.578125 C 12.15625 -4.78125 12.1875 -5.015625 12.1875 -5.21875 Z M 12.1875 -5.21875 "/></g></g></g><g fill="#3ca838" fill-opacity="1"><g transform="translate(144.018078, 28.920039)"><g><path d="M 6.65625 -0.59375 C 6.425781 -0.4375 6.113281 -0.285156 5.71875 -0.140625 C 5.332031 0.00390625 4.910156 0.078125 4.453125 0.078125 C 3.660156 0.078125 2.972656 -0.09375 2.390625 -0.4375 C 1.804688 -0.78125 1.359375 -1.238281 1.046875 -1.8125 C 0.734375 -2.394531 0.578125 -3.03125 0.578125 -3.71875 C 0.578125 -4.476562 0.734375 -5.15625 1.046875 -5.75 C 1.359375 -6.34375 1.796875 -6.804688 2.359375 -7.140625 C 2.921875 -7.472656 3.566406 -7.640625 4.296875 -7.640625 C 4.734375 -7.640625 5.140625 -7.582031 5.515625 -7.46875 C 5.898438 -7.351562 6.238281 -7.207031 6.53125 -7.03125 L 6.046875 -5.890625 C 5.484375 -6.285156 4.910156 -6.484375 4.328125 -6.484375 C 3.890625 -6.484375 3.476562 -6.363281 3.09375 -6.125 C 2.707031 -5.882812 2.398438 -5.554688 2.171875 -5.140625 C 1.941406 -4.734375 1.828125 -4.285156 1.828125 -3.796875 C 1.828125 -3.273438 1.929688 -2.804688 2.140625 -2.390625 C 2.359375 -1.984375 2.660156 -1.660156 3.046875 -1.421875 C 3.441406 -1.191406 3.894531 -1.078125 4.40625 -1.078125 C 4.769531 -1.078125 5.097656 -1.128906 5.390625 -1.234375 C 5.691406 -1.347656 5.941406 -1.492188 6.140625 -1.671875 Z M 6.65625 -0.59375 "/></g></g></g><g fill="#3ca838" fill-opacity="1"><g transform="translate(152.957806, 28.920039)"><g><path d="M 4.921875 -1.78125 L 2.171875 -1.78125 L 1.4375 0 L 0.25 0 L 3.59375 -7.875 L 3.671875 -7.875 L 7.015625 0 L 5.625 0 Z M 4.515625 -2.8125 L 3.578125 -5.203125 L 2.59375 -2.8125 Z M 4.515625 -2.8125 "/></g></g></g><g fill="#3ca838" fill-opacity="1"><g transform="translate(161.939069, 28.920039)"><g><path d="M 5.171875 0 L 3.46875 -2.625 L 2.25 -2.625 L 2.25 0 L 1.03125 0 L 1.03125 -7.5625 L 3.171875 -7.5625 C 4.015625 -7.5625 4.691406 -7.347656 5.203125 -6.921875 C 5.710938 -6.492188 5.96875 -5.898438 5.96875 -5.140625 C 5.96875 -4.671875 5.867188 -4.234375 5.671875 -3.828125 C 5.472656 -3.429688 5.160156 -3.128906 4.734375 -2.921875 L 6.578125 0 Z M 2.25 -3.796875 L 3.328125 -3.796875 C 3.816406 -3.796875 4.171875 -3.925781 4.390625 -4.1875 C 4.609375 -4.457031 4.71875 -4.757812 4.71875 -5.09375 C 4.71875 -5.28125 4.675781 -5.472656 4.59375 -5.671875 C 4.507812 -5.867188 4.363281 -6.039062 4.15625 -6.1875 C 3.957031 -6.332031 3.695312 -6.40625 3.375 -6.40625 L 2.25 -6.40625 Z M 2.25 -3.796875 "/></g></g></g><g fill="#3ca838" fill-opacity="1"><g transform="translate(170.619237, 28.920039)"><g><path d="M 6.0625 -7.5625 L 6.0625 -6.40625 L 2.25 -6.40625 L 2.25 -4.390625 L 5.640625 -4.390625 L 5.640625 -3.21875 L 2.25 -3.21875 L 2.25 -1.15625 L 6.203125 -1.15625 L 6.203125 0 L 1.03125 0 L 1.03125 -7.5625 Z M 6.0625 -7.5625 "/></g></g></g></svg>